<mxfile host="65bd71144e">
    <diagram id="EKmAmqgBf4g7mRitTqm0" name="Page-1">
        <mxGraphModel dx="461" dy="563" grid="1" gridSize="10" guides="1" tooltips="1" connect="1" arrows="1" fold="1" page="1" pageScale="1" pageWidth="850" pageHeight="1100" math="0" shadow="0">
            <root>
                <mxCell id="0"/>
                <mxCell id="1" parent="0"/>
                <mxCell id="2" value="Course" style="rounded=0;whiteSpace=wrap;html=1;" vertex="1" parent="1">
                    <mxGeometry x="180" y="210" width="120" height="60" as="geometry"/>
                </mxCell>
                <mxCell id="3" value="Name" style="ellipse;whiteSpace=wrap;html=1;" vertex="1" parent="1">
                    <mxGeometry x="50" y="215" width="110" height="50" as="geometry"/>
                </mxCell>
                <mxCell id="4" value="Code" style="ellipse;whiteSpace=wrap;html=1;" vertex="1" parent="1">
                    <mxGeometry x="120" y="130" width="110" height="50" as="geometry"/>
                </mxCell>
                <mxCell id="5" value="Syllabus" style="ellipse;whiteSpace=wrap;html=1;" vertex="1" parent="1">
                    <mxGeometry x="330" y="215" width="110" height="50" as="geometry"/>
                </mxCell>
                <mxCell id="6" value="Progression" style="ellipse;whiteSpace=wrap;html=1;" vertex="1" parent="1">
                    <mxGeometry x="260" y="130" width="110" height="50" as="geometry"/>
                </mxCell>
                <mxCell id="7" value="" style="endArrow=none;html=1;" edge="1" parent="1" source="3">
                    <mxGeometry width="50" height="50" relative="1" as="geometry">
                        <mxPoint x="210" y="310" as="sourcePoint"/>
                        <mxPoint x="180" y="240" as="targetPoint"/>
                    </mxGeometry>
                </mxCell>
                <mxCell id="8" value="" style="endArrow=none;html=1;entryX=0.177;entryY=-0.007;entryDx=0;entryDy=0;entryPerimeter=0;exitX=0.593;exitY=0.968;exitDx=0;exitDy=0;exitPerimeter=0;" edge="1" parent="1" source="4" target="2">
                    <mxGeometry width="50" height="50" relative="1" as="geometry">
                        <mxPoint x="210" y="310" as="sourcePoint"/>
                        <mxPoint x="260" y="260" as="targetPoint"/>
                    </mxGeometry>
                </mxCell>
                <mxCell id="9" value="" style="endArrow=none;html=1;exitX=0.863;exitY=0.007;exitDx=0;exitDy=0;exitPerimeter=0;entryX=0.411;entryY=0.968;entryDx=0;entryDy=0;entryPerimeter=0;" edge="1" parent="1" source="2" target="6">
                    <mxGeometry width="50" height="50" relative="1" as="geometry">
                        <mxPoint x="210" y="310" as="sourcePoint"/>
                        <mxPoint x="310" y="170" as="targetPoint"/>
                    </mxGeometry>
                </mxCell>
                <mxCell id="10" value="" style="endArrow=none;html=1;entryX=0;entryY=0.5;entryDx=0;entryDy=0;" edge="1" parent="1" target="5">
                    <mxGeometry width="50" height="50" relative="1" as="geometry">
                        <mxPoint x="300" y="240" as="sourcePoint"/>
                        <mxPoint x="260" y="260" as="targetPoint"/>
                    </mxGeometry>
                </mxCell>
                <mxCell id="11" value="Id" style="ellipse;whiteSpace=wrap;html=1;" vertex="1" parent="1">
                    <mxGeometry x="60" y="290" width="110" height="50" as="geometry"/>
                </mxCell>
                <mxCell id="12" value="" style="endArrow=none;html=1;exitX=1;exitY=0;exitDx=0;exitDy=0;" edge="1" parent="1" source="11" target="2">
                    <mxGeometry width="50" height="50" relative="1" as="geometry">
                        <mxPoint x="210" y="310" as="sourcePoint"/>
                        <mxPoint x="260" y="260" as="targetPoint"/>
                    </mxGeometry>
                </mxCell>
            </root>
        </mxGraphModel>
    </diagram>
</mxfile>